<svg width="195" height="195" viewBox="0 0 195 195" fill="none" xmlns="http://www.w3.org/2000/svg">
<path d="M65.2138 11.3224C60.5254 6.63393 54.1666 4 47.5361 4H11L97.3489 90.349L184.841 4H147.162C140.531 4 134.173 6.63391 129.484 11.3223L97.3489 43.4575L65.2138 11.3224Z" fill="#D5E7F9"/>
<path d="M65.2138 184.376C60.5254 189.064 54.1666 191.698 47.5362 191.698H11L97.3489 105.349L184.841 191.698H147.162C140.531 191.698 134.173 189.064 129.484 184.376L97.3489 152.241L65.2138 184.376Z" fill="#D5E7F9"/>
<path d="M184.376 65.2138C189.065 60.5254 191.699 54.1665 191.699 47.5361V11L105.35 97.349L191.699 184.842V147.162C191.699 140.532 189.065 134.173 184.376 129.484L152.241 97.349L184.376 65.2138Z" fill="#D5E7F9"/>
<path d="M11.3222 130.628C6.63389 135.317 4 141.676 4 148.306V184.842L90.3489 98.4929L4 11.0002V48.6801C4 55.3106 6.63392 61.6694 11.3223 66.3578L43.4574 98.4929L11.3222 130.628Z" fill="#D5E7F9"/>
</svg>
