<svg width="275" height="52" viewBox="0 0 275 52" fill="none" xmlns="http://www.w3.org/2000/svg">
<path d="M71.837 20.9665H78.2401V25.3521H66.1064V4.73951H71.837V20.9665Z" fill="black"/>
<path d="M79.5327 17.1363C79.5327 15.4405 79.8349 13.9591 80.4391 12.6922C81.0629 11.4252 81.901 10.4506 82.9536 9.7684C84.0256 9.08619 85.2146 8.74508 86.5206 8.74508C87.6511 8.74508 88.6257 8.96924 89.4443 9.41755C90.263 9.86586 90.8965 10.4701 91.3448 11.2303V8.94974H97.0754V25.3521H91.3448V23.0716C90.8965 23.8318 90.2533 24.436 89.4151 24.8843C88.5964 25.3326 87.6316 25.5568 86.5206 25.5568C85.2146 25.5568 84.0256 25.2157 82.9536 24.5335C81.901 23.8513 81.0629 22.8767 80.4391 21.6097C79.8349 20.3232 79.5327 18.8321 79.5327 17.1363ZM91.3448 17.1363C91.3448 16.0838 91.0524 15.2554 90.4677 14.6511C89.9024 14.0469 89.2007 13.7447 88.3625 13.7447C87.5049 13.7447 86.7935 14.0469 86.2282 14.6511C85.6629 15.2359 85.3803 16.0643 85.3803 17.1363C85.3803 18.1889 85.6629 19.027 86.2282 19.6508C86.7935 20.255 87.5049 20.5571 88.3625 20.5571C89.2007 20.5571 89.9024 20.255 90.4677 19.6508C91.0524 19.0465 91.3448 18.2084 91.3448 17.1363Z" fill="black"/>
<path d="M117.123 8.94974V25.3521H111.364V23.0131C110.876 23.7538 110.204 24.358 109.346 24.8258C108.488 25.2742 107.504 25.4983 106.393 25.4983C104.483 25.4983 102.972 24.8746 101.861 23.6271C100.77 22.3601 100.224 20.6448 100.224 18.4813V8.94974H105.925V17.7503C105.925 18.6859 106.169 19.4266 106.656 19.9724C107.163 20.4987 107.826 20.7618 108.644 20.7618C109.483 20.7618 110.145 20.4987 110.633 19.9724C111.12 19.4266 111.364 18.6859 111.364 17.7503V8.94974H117.123Z" fill="black"/>
<path d="M131.115 8.80355C133.006 8.80355 134.507 9.43704 135.618 10.704C136.729 11.9515 137.284 13.6473 137.284 15.7914V25.3521H131.554V16.5516C131.554 15.616 131.31 14.885 130.823 14.3587C130.335 13.813 129.682 13.5401 128.864 13.5401C128.006 13.5401 127.334 13.813 126.846 14.3587C126.359 14.885 126.115 15.616 126.115 16.5516V25.3521H120.385V8.94974H126.115V11.2888C126.622 10.5481 127.304 9.95357 128.162 9.50526C129.02 9.03746 130.004 8.80355 131.115 8.80355Z" fill="black"/>
<path d="M139.493 17.1363C139.493 15.4405 139.795 13.9591 140.399 12.6922C141.023 11.4252 141.871 10.4506 142.943 9.7684C144.015 9.08619 145.204 8.74508 146.51 8.74508C147.563 8.74508 148.498 8.96924 149.317 9.41755C150.155 9.84637 150.808 10.4409 151.276 11.2011V3.71619H157.036V25.3521H151.276V23.0716C150.827 23.8318 150.194 24.436 149.375 24.8843C148.557 25.3326 147.592 25.5568 146.481 25.5568C145.175 25.5568 143.986 25.2157 142.914 24.5335C141.861 23.8513 141.023 22.8767 140.399 21.6097C139.795 20.3232 139.493 18.8321 139.493 17.1363ZM151.305 17.1363C151.305 16.0838 151.013 15.2554 150.428 14.6511C149.863 14.0469 149.161 13.7447 148.323 13.7447C147.465 13.7447 146.754 14.0469 146.188 14.6511C145.623 15.2359 145.341 16.0643 145.341 17.1363C145.341 18.1889 145.623 19.027 146.188 19.6508C146.754 20.255 147.465 20.5571 148.323 20.5571C149.161 20.5571 149.863 20.255 150.428 19.6508C151.013 19.0465 151.305 18.2084 151.305 17.1363Z" fill="black"/>
<path d="M166.032 11.8443C166.675 10.9087 167.455 10.168 168.371 9.62221C169.287 9.07644 170.271 8.80355 171.324 8.80355V14.9142H169.716C168.468 14.9142 167.542 15.1579 166.938 15.6452C166.334 16.1325 166.032 16.9804 166.032 18.1889V25.3521H160.301V8.94974H166.032V11.8443Z" fill="black"/>
<path d="M191.038 8.94974L180.629 33.1586H174.401L178.319 24.6504L171.595 8.94974H177.968L181.419 18.2473L184.752 8.94974H191.038Z" fill="black"/>
<path d="M205.431 25.3521L201.425 19.5338L198.004 25.3521H191.484L198.18 14.7973L191.25 4.73951H198.004L201.893 10.4116L205.226 4.73951H211.746L205.138 15.1189L212.185 25.3521H205.431Z" fill="black"/>
<path d="M219.882 11.2303C220.33 10.4701 220.964 9.86586 221.782 9.41755C222.601 8.96924 223.566 8.74508 224.677 8.74508C225.983 8.74508 227.162 9.08619 228.214 9.7684C229.287 10.4506 230.125 11.4252 230.729 12.6922C231.353 13.9591 231.665 15.4405 231.665 17.1363C231.665 18.8321 231.353 20.3232 230.729 21.6097C230.125 22.8767 229.287 23.8513 228.214 24.5335C227.162 25.2157 225.983 25.5568 224.677 25.5568C223.566 25.5568 222.601 25.3326 221.782 24.8843C220.983 24.436 220.35 23.8318 219.882 23.0716V33.1878H214.151V8.94974H219.882V11.2303ZM225.846 17.1363C225.846 16.0643 225.554 15.2359 224.969 14.6511C224.404 14.0469 223.702 13.7447 222.864 13.7447C222.026 13.7447 221.314 14.0469 220.73 14.6511C220.164 15.2554 219.882 16.0838 219.882 17.1363C219.882 18.2084 220.164 19.0465 220.73 19.6508C221.314 20.255 222.026 20.5571 222.864 20.5571C223.702 20.5571 224.404 20.255 224.969 19.6508C225.554 19.027 225.846 18.1889 225.846 17.1363Z" fill="black"/>
<path d="M249.695 16.9609C249.695 17.4092 249.666 17.8575 249.607 18.3058H238.76C238.819 19.2024 239.062 19.8749 239.491 20.3232C239.939 20.7521 240.505 20.9665 241.187 20.9665C242.142 20.9665 242.824 20.5376 243.234 19.68H249.344C249.091 20.8105 248.594 21.8241 247.853 22.7207C247.132 23.5979 246.216 24.2898 245.105 24.7966C243.994 25.3034 242.766 25.5568 241.421 25.5568C239.803 25.5568 238.361 25.2157 237.094 24.5335C235.846 23.8513 234.862 22.8767 234.141 21.6097C233.439 20.3427 233.088 18.8516 233.088 17.1363C233.088 15.421 233.439 13.9397 234.141 12.6922C234.842 11.4252 235.817 10.4506 237.064 9.7684C238.331 9.08619 239.783 8.74508 241.421 8.74508C243.039 8.74508 244.471 9.07644 245.719 9.73916C246.966 10.4019 247.941 11.357 248.643 12.6045C249.344 13.8324 249.695 15.2846 249.695 16.9609ZM243.848 15.5282C243.848 14.8265 243.614 14.2808 243.146 13.8909C242.678 13.4816 242.093 13.2769 241.392 13.2769C240.69 13.2769 240.115 13.4719 239.667 13.8617C239.218 14.232 238.926 14.7875 238.789 15.5282H243.848Z" fill="black"/>
<path d="M257.771 11.8443C258.414 10.9087 259.194 10.168 260.11 9.62221C261.026 9.07644 262.01 8.80355 263.063 8.80355V14.9142H261.455C260.207 14.9142 259.282 15.1579 258.677 15.6452C258.073 16.1325 257.771 16.9804 257.771 18.1889V25.3521H252.04V8.94974H257.771V11.8443Z" fill="black"/>
<path d="M274.795 20.4694V25.3521H272.31C268.119 25.3521 266.024 23.2762 266.024 19.1245V13.7155H264.006V8.94974H266.024V4.97341H271.784V8.94974H274.766V13.7155H271.784V19.2122C271.784 19.6605 271.881 19.9821 272.076 20.177C272.29 20.372 272.641 20.4694 273.128 20.4694H274.795Z" fill="black"/>
<path d="M69.6208 45.0899L71.8943 48.7423H70.5471L68.8945 46.0898L67.3473 48.7423H66.0105L68.2841 45.0899L66 41.427H67.3473L69.0103 44.1005L70.5681 41.427H71.9049L69.6208 45.0899Z" fill="black"/>
<path d="M74.9379 43.7953C75.1414 43.5286 75.4185 43.3041 75.7694 43.1216C76.1202 42.9392 76.5167 42.8479 76.9588 42.8479C77.464 42.8479 77.9236 42.9743 78.3376 43.2269C78.7587 43.4725 79.0885 43.8198 79.327 44.2689C79.5656 44.718 79.6849 45.2337 79.6849 45.8162C79.6849 46.3986 79.5656 46.9214 79.327 47.3845C79.0885 47.8406 78.7587 48.1985 78.3376 48.4581C77.9236 48.7107 77.464 48.837 76.9588 48.837C76.5167 48.837 76.1238 48.7493 75.7799 48.5739C75.4361 48.3914 75.1554 48.1669 74.9379 47.9002V51.5H73.738V42.9427H74.9379V43.7953ZM78.4639 45.8162C78.4639 45.4162 78.3797 45.0724 78.2113 44.7847C78.0499 44.4899 77.8324 44.2689 77.5587 44.1215C77.2921 43.9672 77.0044 43.89 76.6956 43.89C76.3939 43.89 76.1062 43.9672 75.8325 44.1215C75.5659 44.2759 75.3484 44.5005 75.18 44.7952C75.0186 45.0899 74.9379 45.4372 74.9379 45.8372C74.9379 46.2372 75.0186 46.588 75.18 46.8898C75.3484 47.1845 75.5659 47.409 75.8325 47.5634C76.1062 47.7178 76.3939 47.795 76.6956 47.795C77.0044 47.795 77.2921 47.7178 77.5587 47.5634C77.8324 47.402 78.0499 47.1705 78.2113 46.8687C78.3797 46.567 78.4639 46.2161 78.4639 45.8162Z" fill="black"/>
<path d="M86.7132 45.7004C86.7132 45.9179 86.6992 46.1144 86.6711 46.2898H82.2398C82.2749 46.7529 82.4468 47.1248 82.7556 47.4055C83.0643 47.6862 83.4433 47.8266 83.8924 47.8266C84.5379 47.8266 84.994 47.5564 85.2607 47.0161H86.5553C86.3799 47.5494 86.0606 47.9879 85.5975 48.3318C85.1414 48.6686 84.573 48.837 83.8924 48.837C83.338 48.837 82.8398 48.7142 82.3977 48.4686C81.9627 48.216 81.6188 47.8651 81.3662 47.4161C81.1206 46.9599 80.9978 46.4337 80.9978 45.8372C80.9978 45.2408 81.1171 44.718 81.3557 44.2689C81.6013 43.8128 81.9416 43.4619 82.3767 43.2163C82.8187 42.9707 83.324 42.8479 83.8924 42.8479C84.4397 42.8479 84.9274 42.9672 85.3554 43.2058C85.7835 43.4444 86.1168 43.7812 86.3553 44.2163C86.5939 44.6443 86.7132 45.139 86.7132 45.7004ZM85.4607 45.3215C85.4536 44.8794 85.2958 44.525 84.987 44.2584C84.6783 43.9917 84.2958 43.8584 83.8397 43.8584C83.4257 43.8584 83.0714 43.9917 82.7766 44.2584C82.4819 44.518 82.3065 44.8724 82.2504 45.3215H85.4607Z" fill="black"/>
<path d="M89.6203 43.7847C89.7957 43.49 90.0272 43.262 90.3149 43.1006C90.6097 42.9322 90.957 42.8479 91.357 42.8479V44.09H91.0517C90.5816 44.09 90.2237 44.2093 89.9781 44.4478C89.7395 44.6864 89.6203 45.1004 89.6203 45.6899V48.7423H88.4203V42.9427H89.6203V43.7847Z" fill="black"/>
<path d="M94.3861 43.9216V47.1319C94.3861 47.3494 94.4352 47.5073 94.5335 47.6055C94.6387 47.6967 94.8142 47.7423 95.0598 47.7423H95.7966V48.7423H94.8493C94.3089 48.7423 93.8949 48.616 93.6072 48.3634C93.3195 48.1107 93.1757 47.7002 93.1757 47.1319V43.9216H92.4915V42.9427H93.1757V41.5007H94.3861V42.9427H95.7966V43.9216H94.3861Z" fill="black"/>
<path d="M98.0392 42.1743C97.8217 42.1743 97.6393 42.1006 97.4919 41.9533C97.3446 41.8059 97.2709 41.6235 97.2709 41.4059C97.2709 41.1884 97.3446 41.006 97.4919 40.8586C97.6393 40.7113 97.8217 40.6376 98.0392 40.6376C98.2498 40.6376 98.4287 40.7113 98.576 40.8586C98.7234 41.006 98.7971 41.1884 98.7971 41.4059C98.7971 41.6235 98.7234 41.8059 98.576 41.9533C98.4287 42.1006 98.2498 42.1743 98.0392 42.1743ZM98.6287 42.9427V48.7423H97.4288V42.9427H98.6287Z" fill="black"/>
<path d="M102.835 48.837C102.379 48.837 101.969 48.7563 101.604 48.5949C101.246 48.4265 100.962 48.202 100.751 47.9213C100.541 47.6336 100.429 47.3143 100.415 46.9635H101.657C101.678 47.2091 101.793 47.4161 102.004 47.5845C102.221 47.7459 102.492 47.8266 102.814 47.8266C103.151 47.8266 103.411 47.7634 103.593 47.6371C103.783 47.5038 103.877 47.3354 103.877 47.1319C103.877 46.9143 103.772 46.7529 103.562 46.6477C103.358 46.5424 103.032 46.4266 102.583 46.3003C102.148 46.1811 101.793 46.0653 101.52 45.953C101.246 45.8407 101.008 45.6688 100.804 45.4372C100.608 45.2057 100.509 44.9004 100.509 44.5215C100.509 44.2128 100.601 43.9321 100.783 43.6795C100.965 43.4198 101.225 43.2163 101.562 43.069C101.906 42.9216 102.299 42.8479 102.741 42.8479C103.4 42.8479 103.93 43.0164 104.33 43.3532C104.737 43.683 104.955 44.1356 104.983 44.711H103.783C103.762 44.4513 103.656 44.2443 103.467 44.09C103.278 43.9356 103.021 43.8584 102.699 43.8584C102.383 43.8584 102.141 43.918 101.972 44.0373C101.804 44.1566 101.72 44.3145 101.72 44.511C101.72 44.6654 101.776 44.7952 101.888 44.9004C102 45.0057 102.137 45.0899 102.299 45.1531C102.46 45.2092 102.699 45.2829 103.014 45.3741C103.435 45.4864 103.779 45.6021 104.046 45.7214C104.32 45.8337 104.555 46.0021 104.751 46.2267C104.948 46.4512 105.049 46.7494 105.056 47.1213C105.056 47.4511 104.965 47.7459 104.783 48.0055C104.6 48.2651 104.341 48.4686 104.004 48.616C103.674 48.7633 103.285 48.837 102.835 48.837Z" fill="black"/>
<path d="M112.195 45.7004C112.195 45.9179 112.181 46.1144 112.153 46.2898H107.721C107.756 46.7529 107.928 47.1248 108.237 47.4055C108.546 47.6862 108.925 47.8266 109.374 47.8266C110.019 47.8266 110.475 47.5564 110.742 47.0161H112.037C111.861 47.5494 111.542 47.9879 111.079 48.3318C110.623 48.6686 110.054 48.837 109.374 48.837C108.819 48.837 108.321 48.7142 107.879 48.4686C107.444 48.216 107.1 47.8651 106.848 47.4161C106.602 46.9599 106.479 46.4337 106.479 45.8372C106.479 45.2408 106.598 44.718 106.837 44.2689C107.083 43.8128 107.423 43.4619 107.858 43.2163C108.3 42.9707 108.805 42.8479 109.374 42.8479C109.921 42.8479 110.409 42.9672 110.837 43.2058C111.265 43.4444 111.598 43.7812 111.837 44.2163C112.075 44.6443 112.195 45.139 112.195 45.7004ZM110.942 45.3215C110.935 44.8794 110.777 44.525 110.468 44.2584C110.16 43.9917 109.777 43.8584 109.321 43.8584C108.907 43.8584 108.553 43.9917 108.258 44.2584C107.963 44.518 107.788 44.8724 107.732 45.3215H110.942Z" fill="black"/>
<path d="M117.773 42.1743C117.555 42.1743 117.373 42.1006 117.225 41.9533C117.078 41.8059 117.004 41.6235 117.004 41.4059C117.004 41.1884 117.078 41.006 117.225 40.8586C117.373 40.7113 117.555 40.6376 117.773 40.6376C117.983 40.6376 118.162 40.7113 118.309 40.8586C118.457 41.006 118.531 41.1884 118.531 41.4059C118.531 41.6235 118.457 41.8059 118.309 41.9533C118.162 42.1006 117.983 42.1743 117.773 42.1743ZM118.362 42.9427V48.7423H117.162V42.9427H118.362Z" fill="black"/>
<path d="M123.39 42.8479C123.846 42.8479 124.253 42.9427 124.611 43.1321C124.976 43.3216 125.26 43.6023 125.463 43.9742C125.667 44.3461 125.769 44.7952 125.769 45.3215V48.7423H124.579V45.5004C124.579 44.9811 124.449 44.5847 124.19 44.311C123.93 44.0303 123.576 43.89 123.127 43.89C122.678 43.89 122.32 44.0303 122.053 44.311C121.794 44.5847 121.664 44.9811 121.664 45.5004V48.7423H120.464V42.9427H121.664V43.6058C121.86 43.3672 122.109 43.1813 122.411 43.0479C122.72 42.9146 123.046 42.8479 123.39 42.8479Z" fill="black"/>
<path d="M130.686 45.0688C130.686 44.3531 130.851 43.711 131.181 43.1427C131.518 42.5743 131.97 42.1322 132.539 41.8164C133.114 41.4937 133.742 41.3323 134.423 41.3323C135.201 41.3323 135.893 41.5252 136.496 41.9112C137.107 42.2901 137.549 42.8304 137.822 43.5321H136.38C136.191 43.1462 135.928 42.8585 135.591 42.669C135.254 42.4796 134.865 42.3848 134.423 42.3848C133.938 42.3848 133.507 42.4936 133.128 42.7111C132.749 42.9286 132.451 43.2409 132.233 43.6479C132.023 44.0549 131.918 44.5285 131.918 45.0688C131.918 45.6092 132.023 46.0828 132.233 46.4898C132.451 46.8968 132.749 47.2126 133.128 47.4371C133.507 47.6546 133.938 47.7634 134.423 47.7634C134.865 47.7634 135.254 47.6687 135.591 47.4792C135.928 47.2897 136.191 47.002 136.38 46.6161H137.822C137.549 47.3178 137.107 47.8581 136.496 48.2371C135.893 48.616 135.201 48.8054 134.423 48.8054C133.735 48.8054 133.107 48.6475 132.539 48.3318C131.97 48.009 131.518 47.5634 131.181 46.995C130.851 46.4266 130.686 45.7846 130.686 45.0688Z" fill="black"/>
<path d="M140.953 40.9533V48.7423H139.753V40.9533H140.953Z" fill="black"/>
<path d="M148.37 45.7004C148.37 45.9179 148.356 46.1144 148.328 46.2898H143.897C143.932 46.7529 144.104 47.1248 144.413 47.4055C144.721 47.6862 145.1 47.8266 145.549 47.8266C146.195 47.8266 146.651 47.5564 146.918 47.0161H148.212C148.037 47.5494 147.718 47.9879 147.254 48.3318C146.798 48.6686 146.23 48.837 145.549 48.837C144.995 48.837 144.497 48.7142 144.055 48.4686C143.62 48.216 143.276 47.8651 143.023 47.4161C142.778 46.9599 142.655 46.4337 142.655 45.8372C142.655 45.2408 142.774 44.718 143.013 44.2689C143.258 43.8128 143.599 43.4619 144.034 43.2163C144.476 42.9707 144.981 42.8479 145.549 42.8479C146.097 42.8479 146.584 42.9672 147.012 43.2058C147.44 43.4444 147.774 43.7812 148.012 44.2163C148.251 44.6443 148.37 45.139 148.37 45.7004ZM147.118 45.3215C147.111 44.8794 146.953 44.525 146.644 44.2584C146.335 43.9917 145.953 43.8584 145.497 43.8584C145.083 43.8584 144.728 43.9917 144.434 44.2584C144.139 44.518 143.963 44.8724 143.907 45.3215H147.118Z" fill="black"/>
<path d="M149.677 45.8162C149.677 45.2337 149.797 44.718 150.035 44.2689C150.281 43.8198 150.611 43.4725 151.025 43.2269C151.446 42.9743 151.909 42.8479 152.414 42.8479C152.87 42.8479 153.267 42.9392 153.603 43.1216C153.947 43.297 154.221 43.5181 154.424 43.7847V42.9427H155.635V48.7423H154.424V47.8792C154.221 48.1528 153.944 48.3809 153.593 48.5633C153.242 48.7458 152.842 48.837 152.393 48.837C151.895 48.837 151.439 48.7107 151.025 48.4581C150.611 48.1985 150.281 47.8406 150.035 47.3845C149.797 46.9214 149.677 46.3986 149.677 45.8162ZM154.424 45.8372C154.424 45.4372 154.34 45.0899 154.172 44.7952C154.01 44.5005 153.796 44.2759 153.53 44.1215C153.263 43.9672 152.975 43.89 152.667 43.89C152.358 43.89 152.07 43.9672 151.803 44.1215C151.537 44.2689 151.319 44.4899 151.151 44.7847C150.989 45.0724 150.909 45.4162 150.909 45.8162C150.909 46.2161 150.989 46.567 151.151 46.8687C151.319 47.1705 151.537 47.402 151.803 47.5634C152.077 47.7178 152.365 47.795 152.667 47.795C152.975 47.795 153.263 47.7178 153.53 47.5634C153.796 47.409 154.01 47.1845 154.172 46.8898C154.34 46.588 154.424 46.2372 154.424 45.8372Z" fill="black"/>
<path d="M160.663 42.8479C161.119 42.8479 161.526 42.9427 161.884 43.1321C162.249 43.3216 162.533 43.6023 162.737 43.9742C162.94 44.3461 163.042 44.7952 163.042 45.3215V48.7423H161.853V45.5004C161.853 44.9811 161.723 44.5847 161.463 44.311C161.204 44.0303 160.849 43.89 160.4 43.89C159.951 43.89 159.593 44.0303 159.326 44.311C159.067 44.5847 158.937 44.9811 158.937 45.5004V48.7423H157.737V42.9427H158.937V43.6058C159.134 43.3672 159.383 43.1813 159.684 43.0479C159.993 42.9146 160.319 42.8479 160.663 42.8479Z" fill="black"/>
<path d="M166.299 40.9533V48.7423H165.099V40.9533H166.299Z" fill="black"/>
<path d="M169.011 42.1743C168.793 42.1743 168.611 42.1006 168.464 41.9533C168.316 41.8059 168.243 41.6235 168.243 41.4059C168.243 41.1884 168.316 41.006 168.464 40.8586C168.611 40.7113 168.793 40.6376 169.011 40.6376C169.221 40.6376 169.4 40.7113 169.548 40.8586C169.695 41.006 169.769 41.1884 169.769 41.4059C169.769 41.6235 169.695 41.8059 169.548 41.9533C169.4 42.1006 169.221 42.1743 169.011 42.1743ZM169.6 42.9427V48.7423H168.4V42.9427H169.6Z" fill="black"/>
<path d="M174.628 42.8479C175.084 42.8479 175.491 42.9427 175.849 43.1321C176.214 43.3216 176.498 43.6023 176.702 43.9742C176.905 44.3461 177.007 44.7952 177.007 45.3215V48.7423H175.818V45.5004C175.818 44.9811 175.688 44.5847 175.428 44.311C175.168 44.0303 174.814 43.89 174.365 43.89C173.916 43.89 173.558 44.0303 173.291 44.311C173.032 44.5847 172.902 44.9811 172.902 45.5004V48.7423H171.702V42.9427H172.902V43.6058C173.098 43.3672 173.348 43.1813 173.649 43.0479C173.958 42.9146 174.284 42.8479 174.628 42.8479Z" fill="black"/>
<path d="M184.379 45.7004C184.379 45.9179 184.365 46.1144 184.337 46.2898H179.906C179.941 46.7529 180.113 47.1248 180.422 47.4055C180.73 47.6862 181.109 47.8266 181.558 47.8266C182.204 47.8266 182.66 47.5564 182.927 47.0161H184.221C184.046 47.5494 183.727 47.9879 183.263 48.3318C182.807 48.6686 182.239 48.837 181.558 48.837C181.004 48.837 180.506 48.7142 180.064 48.4686C179.629 48.216 179.285 47.8651 179.032 47.4161C178.787 46.9599 178.664 46.4337 178.664 45.8372C178.664 45.2408 178.783 44.718 179.022 44.2689C179.267 43.8128 179.608 43.4619 180.043 43.2163C180.485 42.9707 180.99 42.8479 181.558 42.8479C182.106 42.8479 182.593 42.9672 183.021 43.2058C183.449 43.4444 183.783 43.7812 184.021 44.2163C184.26 44.6443 184.379 45.139 184.379 45.7004ZM183.127 45.3215C183.12 44.8794 182.962 44.525 182.653 44.2584C182.344 43.9917 181.962 43.8584 181.506 43.8584C181.092 43.8584 180.737 43.9917 180.443 44.2584C180.148 44.518 179.972 44.8724 179.916 45.3215H183.127Z" fill="black"/>
<path d="M188.191 48.837C187.735 48.837 187.325 48.7563 186.96 48.5949C186.602 48.4265 186.318 48.202 186.107 47.9213C185.897 47.6336 185.785 47.3143 185.771 46.9635H187.013C187.034 47.2091 187.149 47.4161 187.36 47.5845C187.577 47.7459 187.848 47.8266 188.17 47.8266C188.507 47.8266 188.767 47.7634 188.949 47.6371C189.139 47.5038 189.233 47.3354 189.233 47.1319C189.233 46.9143 189.128 46.7529 188.918 46.6477C188.714 46.5424 188.388 46.4266 187.939 46.3003C187.504 46.1811 187.149 46.0653 186.876 45.953C186.602 45.8407 186.363 45.6688 186.16 45.4372C185.964 45.2057 185.865 44.9004 185.865 44.5215C185.865 44.2128 185.956 43.9321 186.139 43.6795C186.321 43.4198 186.581 43.2163 186.918 43.069C187.262 42.9216 187.655 42.8479 188.097 42.8479C188.756 42.8479 189.286 43.0164 189.686 43.3532C190.093 43.683 190.311 44.1356 190.339 44.711H189.139C189.118 44.4513 189.012 44.2443 188.823 44.09C188.634 43.9356 188.377 43.8584 188.055 43.8584C187.739 43.8584 187.497 43.918 187.328 44.0373C187.16 44.1566 187.076 44.3145 187.076 44.511C187.076 44.6654 187.132 44.7952 187.244 44.9004C187.356 45.0057 187.493 45.0899 187.655 45.1531C187.816 45.2092 188.055 45.2829 188.37 45.3741C188.791 45.4864 189.135 45.6021 189.402 45.7214C189.676 45.8337 189.911 46.0021 190.107 46.2267C190.304 46.4512 190.405 46.7494 190.412 47.1213C190.412 47.4511 190.321 47.7459 190.139 48.0055C189.956 48.2651 189.697 48.4686 189.36 48.616C189.03 48.7633 188.641 48.837 188.191 48.837Z" fill="black"/>
<path d="M194.34 48.837C193.884 48.837 193.474 48.7563 193.109 48.5949C192.751 48.4265 192.467 48.202 192.256 47.9213C192.046 47.6336 191.933 47.3143 191.919 46.9635H193.161C193.182 47.2091 193.298 47.4161 193.509 47.5845C193.726 47.7459 193.996 47.8266 194.319 47.8266C194.656 47.8266 194.916 47.7634 195.098 47.6371C195.288 47.5038 195.382 47.3354 195.382 47.1319C195.382 46.9143 195.277 46.7529 195.067 46.6477C194.863 46.5424 194.537 46.4266 194.088 46.3003C193.653 46.1811 193.298 46.0653 193.025 45.953C192.751 45.8407 192.512 45.6688 192.309 45.4372C192.112 45.2057 192.014 44.9004 192.014 44.5215C192.014 44.2128 192.105 43.9321 192.288 43.6795C192.47 43.4198 192.73 43.2163 193.067 43.069C193.411 42.9216 193.803 42.8479 194.246 42.8479C194.905 42.8479 195.435 43.0164 195.835 43.3532C196.242 43.683 196.459 44.1356 196.487 44.711H195.288C195.267 44.4513 195.161 44.2443 194.972 44.09C194.782 43.9356 194.526 43.8584 194.203 43.8584C193.888 43.8584 193.646 43.918 193.477 44.0373C193.309 44.1566 193.225 44.3145 193.225 44.511C193.225 44.6654 193.281 44.7952 193.393 44.9004C193.505 45.0057 193.642 45.0899 193.803 45.1531C193.965 45.2092 194.203 45.2829 194.519 45.3741C194.94 45.4864 195.284 45.6021 195.551 45.7214C195.824 45.8337 196.059 46.0021 196.256 46.2267C196.452 46.4512 196.554 46.7494 196.561 47.1213C196.561 47.4511 196.47 47.7459 196.288 48.0055C196.105 48.2651 195.845 48.4686 195.509 48.616C195.179 48.7633 194.789 48.837 194.34 48.837Z" fill="black"/>
<path d="M14.6189 0.49999H2.63147L24.706 22.5745L47.0729 0.49999H34.793L24.706 10.587L14.6189 0.49999Z" fill="#007FFF"/>
<path d="M14.6189 50.3504H2.63147L24.706 28.2759L47.0729 50.3504H34.793L24.706 40.2634L14.6189 50.3504Z" fill="#007FFF"/>
<path d="M49.8504 14.8265V2.83899L27.7759 24.9135L49.8504 47.2804V35.0005L39.7634 24.9135L49.8504 14.8265Z" fill="#D5E7F9"/>
<path d="M-4.00543e-05 35.2929V47.2804L22.0745 25.2059L-4.00543e-05 2.83904V15.1189L10.087 25.2059L-4.00543e-05 35.2929Z" fill="#D5E7F9"/>
</svg>
